<svg width="114" height="114" viewBox="0 0 114 114" fill="none" xmlns="http://www.w3.org/2000/svg"><rect width="114" height="114" rx="20" fill="white"/><rect width="114" height="114" rx="20" fill="#202124"/><path fill-rule="evenodd" clip-rule="evenodd" d="M18.1137 60.531C16.161 58.5784 16.161 55.4126 18.1137 53.46L35.7913 35.7823L48.5192 48.5102L41.4578 55.5717C40.6689 56.3605 40.6689 57.6395 41.4578 58.4283L48.5147 65.4853L35.7913 78.2087L18.1137 60.531Z" fill="url(#paint0_linear_3_8)"/><path fill-rule="evenodd" clip-rule="evenodd" d="M53.4645 18.1091C55.4171 16.1565 58.5829 16.1565 60.5355 18.1091L78.2132 35.7868L65.4853 48.5147L58.4238 41.4532C57.635 40.6644 56.356 40.6644 55.5672 41.4532L48.5102 48.5102L35.7868 35.7868L53.4645 18.1091Z" fill="url(#paint1_linear_3_8)"/><path fill-rule="evenodd" clip-rule="evenodd" d="M95.8909 53.4645C97.8435 55.4171 97.8435 58.5829 95.8909 60.5355L78.2132 78.2132L65.4853 65.4853L72.5468 58.4238C73.3356 57.635 73.3356 56.356 72.5468 55.5672L65.4898 48.5102L78.2132 35.7868L95.8909 53.4645Z" fill="url(#paint2_linear_3_8)"/><path fill-rule="evenodd" clip-rule="evenodd" d="M60.5355 95.8909C58.5829 97.8435 55.4171 97.8435 53.4645 95.8909L35.7868 78.2132L48.5147 65.4853L55.5762 72.5468C56.365 73.3356 57.644 73.3356 58.4328 72.5468L65.4898 65.4898L78.2132 78.2132L60.5355 95.8909Z" fill="url(#paint3_linear_3_8)"/><defs><linearGradient id="paint0_linear_3_8" x1="35.5781" y1="35.5691" x2="57.0781" y2="57.0691" gradientUnits="userSpaceOnUse"><stop stop-color="#DBDBDB" stop-opacity="0.8"/><stop offset="1" stop-color="#DBDBDB"/></linearGradient><linearGradient id="paint1_linear_3_8" x1="78.4264" y1="35.5736" x2="56.9264" y2="57.0736" gradientUnits="userSpaceOnUse"><stop stop-color="#DBDBDB" stop-opacity="0.8"/><stop offset="1" stop-color="#DBDBDB"/></linearGradient><linearGradient id="paint2_linear_3_8" x1="78.4264" y1="78.4264" x2="56.9264" y2="56.9264" gradientUnits="userSpaceOnUse"><stop stop-color="#DBDBDB" stop-opacity="0.8"/><stop offset="1" stop-color="#DBDBDB"/></linearGradient><linearGradient id="paint3_linear_3_8" x1="35.5736" y1="78.4264" x2="57.0736" y2="56.9264" gradientUnits="userSpaceOnUse"><stop stop-color="#DBDBDB" stop-opacity="0.8"/><stop offset="1" stop-color="#DBDBDB"/></linearGradient></defs></svg>