<svg width="85" height="85" viewBox="0 0 85 85" fill="none" xmlns="http://www.w3.org/2000/svg"><path fill-rule="evenodd" clip-rule="evenodd" d="M3.54005 45.9574C1.58743 44.0048 1.58743 40.839 3.54005 38.8864L21.2177 21.2087L33.9456 33.9366L26.8842 40.9981C26.0953 41.7869 26.0953 43.0659 26.8842 43.8547L33.9411 50.9117L21.2177 63.6351L3.54005 45.9574Z" fill="url(#paint0_linear_3_86)"/><path fill-rule="evenodd" clip-rule="evenodd" d="M38.8909 3.53553C40.8435 1.58291 44.0093 1.58291 45.9619 3.53553L63.6396 21.2132L50.9117 33.9411L43.8502 26.8796C43.0614 26.0908 41.7824 26.0908 40.9936 26.8796L33.9366 33.9366L21.2132 21.2132L38.8909 3.53553Z" fill="url(#paint1_linear_3_86)"/><path fill-rule="evenodd" clip-rule="evenodd" d="M81.3173 38.8909C83.2699 40.8435 83.2699 44.0093 81.3173 45.9619L63.6396 63.6396L50.9117 50.9117L57.9732 43.8502C58.762 43.0614 58.762 41.7824 57.9732 40.9936L50.9162 33.9366L63.6396 21.2132L81.3173 38.8909Z" fill="url(#paint2_linear_3_86)"/><path fill-rule="evenodd" clip-rule="evenodd" d="M45.9619 81.3173C44.0093 83.2699 40.8435 83.2699 38.8909 81.3173L21.2132 63.6396L33.9411 50.9117L41.0026 57.9732C41.7914 58.762 43.0704 58.762 43.8592 57.9732L50.9162 50.9162L63.6396 63.6396L45.9619 81.3173Z" fill="url(#paint3_linear_3_86)"/><defs><linearGradient id="paint0_linear_3_86" x1="21.0045" y1="20.9955" x2="42.5045" y2="42.4955" gradientUnits="userSpaceOnUse"><stop stop-color="#DBDBDB" stop-opacity="0.8"/><stop offset="1" stop-color="#DBDBDB"/></linearGradient><linearGradient id="paint1_linear_3_86" x1="63.8528" y1="21" x2="42.3528" y2="42.5" gradientUnits="userSpaceOnUse"><stop stop-color="#DBDBDB" stop-opacity="0.8"/><stop offset="1" stop-color="#DBDBDB"/></linearGradient><linearGradient id="paint2_linear_3_86" x1="63.8528" y1="63.8528" x2="42.3528" y2="42.3528" gradientUnits="userSpaceOnUse"><stop stop-color="#DBDBDB" stop-opacity="0.8"/><stop offset="1" stop-color="#DBDBDB"/></linearGradient><linearGradient id="paint3_linear_3_86" x1="21" y1="63.8528" x2="42.5" y2="42.3528" gradientUnits="userSpaceOnUse"><stop stop-color="#DBDBDB" stop-opacity="0.8"/><stop offset="1" stop-color="#DBDBDB"/></linearGradient></defs></svg>